<svg width="96" height="96" viewBox="0 0 96 96" fill="none" xmlns="http://www.w3.org/2000/svg">
<path d="M48.1575 2.48128C23.1918 2.48128 2.88093 22.7922 2.88093 47.7579C2.88093 72.7236 23.1918 93.0345 48.1575 93.0345C73.1232 93.0345 93.4341 72.7236 93.4341 47.7579C93.4341 22.7922 73.1232 2.48128 48.1575 2.48128ZM48.1575 95.2963C21.9456 95.2963 0.619141 73.9698 0.619141 47.7579C0.619141 21.5459 21.9456 0.219482 48.1575 0.219482C74.3695 0.219482 95.6959 21.5459 95.6959 47.7579C95.6959 73.9698 74.3695 95.2963 48.1575 95.2963Z" fill="#2B2B2B"/>
<path d="M39.6654 1.01562H56.6289V3.27742H39.6654V1.01562Z" fill="#2B2B2B"/>
<path d="M18.2657 11.1487H78.0449V13.4105H18.2657V11.1487Z" fill="#2B2B2B"/>
<path d="M9.31213 21.2812H87.0273V23.543H9.31213V21.2812Z" fill="#2B2B2B"/>
<path d="M4.31033 31.4368H92V33.6986H4.31033V31.4368Z" fill="#2B2B2B"/>
<path d="M2.04845 41.5696H94.2617V43.8314H2.04845V41.5696Z" fill="#2B2B2B"/>
<path d="M2.04845 51.7024H94.2617V53.9642H2.04845V51.7024Z" fill="#2B2B2B"/>
<path d="M4.33297 61.8352H92V64.097H4.33297V61.8352Z" fill="#2B2B2B"/>
<path d="M9.28948 71.9685H87.0273V74.2303H9.28948V71.9685Z" fill="#2B2B2B"/>
<path d="M18.2915 82.1008H78.0254V84.3626H18.2915V82.1008Z" fill="#2B2B2B"/>
<path d="M39.6654 92.2341H56.6289V94.4959H39.6654V92.2341Z" fill="#2B2B2B"/>
</svg>
