<svg width="150" height="605" viewBox="0 0 150 605" fill="none" xmlns="http://www.w3.org/2000/svg">
<path d="M117.697 517.23L117.697 532.725L41.6077 556.244L117.697 579.762L117.697 595.257L20.856 565.513L20.856 546.975L117.697 517.23ZM87.9532 449.704L87.9532 464.645L20.856 464.645L20.856 449.704L87.9532 449.704ZM102.756 398.517L117.697 398.517L117.697 464.645L102.756 464.645L102.756 398.517ZM20.856 308.708C20.856 299.209 23.4385 291.876 28.6033 286.712C33.7682 281.454 41.1005 278.826 50.6001 278.826C60.0998 278.826 67.4782 281.454 72.7353 286.712C77.9001 291.876 80.4826 299.209 80.4826 308.708L80.4826 330.982L117.697 330.982L117.697 345.923L65.5413 345.923L65.5413 308.708C65.5413 303.267 64.4346 299.439 62.2211 297.226C59.9153 294.92 56.0417 293.767 50.6001 293.767C45.2508 293.767 41.4694 294.92 39.2559 297.226C36.9501 299.439 35.7972 303.267 35.7972 308.708L35.7972 345.923L20.856 345.923L20.856 308.708ZM20.856 226.255L20.856 211.314L117.697 211.314L117.697 226.255L20.856 226.255ZM20.856 151.826L117.697 151.826L117.697 166.628L73.0119 166.628L73.0119 196.511L58.0707 196.511L58.0707 166.628L20.856 166.628L20.856 151.826ZM117.697 21.265L117.697 36.7596L41.6077 60.2782L117.697 83.7968L117.697 99.2914L20.856 69.5473L20.856 51.0091L117.697 21.265Z" fill="#E1E1E1" fill-opacity="0.06"/>
</svg>
