<svg width="31" height="110" viewBox="0 0 31 110" fill="none" xmlns="http://www.w3.org/2000/svg">
<path d="M15.7602 2.86719C8.7787 2.86719 3.1001 8.54819 3.1001 15.5273C3.1001 22.5088 8.7787 28.1874 15.7602 28.1874C22.7417 28.1874 28.4203 22.5088 28.4203 15.5273C28.4203 8.54819 22.7417 2.86719 15.7602 2.86719ZM15.7602 30.5824C7.45905 30.5824 0.705078 23.8284 0.705078 15.5273C0.705078 7.22614 7.45905 0.472168 15.7602 0.472168C24.0614 0.472168 30.8153 7.22614 30.8153 15.5273C30.8153 23.8284 24.0614 30.5824 15.7602 30.5824Z" fill="#2B2B2B"/>
<path d="M15.7602 22.7222C8.7787 22.7222 3.1001 28.4008 3.1001 35.3823C3.1001 42.3614 8.7787 48.04 15.7602 48.04C22.7417 48.04 28.4203 42.3614 28.4203 35.3823C28.4203 28.4008 22.7417 22.7222 15.7602 22.7222ZM15.7602 50.435C7.45905 50.435 0.705078 43.681 0.705078 35.3823C0.705078 27.0811 7.45905 20.3271 15.7602 20.3271C24.0614 20.3271 30.8153 27.0811 30.8153 35.3823C30.8153 43.681 24.0614 50.435 15.7602 50.435Z" fill="#2B2B2B"/>
<path d="M15.7602 42.5767C8.7787 42.5767 3.1001 48.2553 3.1001 55.2368C3.1001 62.2159 8.7787 67.8945 15.7602 67.8945C22.7417 67.8945 28.4203 62.2159 28.4203 55.2368C28.4203 48.2553 22.7417 42.5767 15.7602 42.5767ZM15.7602 70.2895C7.45905 70.2895 0.705078 63.5355 0.705078 55.2368C0.705078 46.9356 7.45905 40.1816 15.7602 40.1816C24.0614 40.1816 30.8153 46.9356 30.8153 55.2368C30.8153 63.5355 24.0614 70.2895 15.7602 70.2895Z" fill="#2B2B2B"/>
<path d="M15.7602 62.4316C8.7787 62.4316 3.1001 68.1102 3.1001 75.0917C3.1001 82.0708 8.7787 87.7494 15.7602 87.7494C22.7417 87.7494 28.4203 82.0708 28.4203 75.0917C28.4203 68.1102 22.7417 62.4316 15.7602 62.4316ZM15.7602 90.1445C7.45905 90.1445 0.705078 83.3905 0.705078 75.0917C0.705078 66.7906 7.45905 60.0366 15.7602 60.0366C24.0614 60.0366 30.8153 66.7906 30.8153 75.0917C30.8153 83.3905 24.0614 90.1445 15.7602 90.1445Z" fill="#2B2B2B"/>
<path d="M15.7602 82.2864C8.7787 82.2864 3.1001 87.965 3.1001 94.9465C3.1001 101.926 8.7787 107.604 15.7602 107.604C22.7417 107.604 28.4203 101.926 28.4203 94.9465C28.4203 87.965 22.7417 82.2864 15.7602 82.2864ZM15.7602 109.999C7.45905 109.999 0.705078 103.245 0.705078 94.9465C0.705078 86.6453 7.45905 79.8914 15.7602 79.8914C24.0614 79.8914 30.8153 86.6453 30.8153 94.9465C30.8153 103.245 24.0614 109.999 15.7602 109.999Z" fill="#2B2B2B"/>
</svg>
