<svg width="208" height="64" viewBox="0 0 208 64" fill="none" xmlns="http://www.w3.org/2000/svg">
<circle cx="198.239" cy="13.573" r="7.53997" stroke="#F7F7F7" stroke-width="2.85992"/>
<path d="M201.174 17.5571H195.994V16.4072C195.994 16.154 196.092 15.9149 196.289 15.6898C196.493 15.4577 196.743 15.2362 197.038 15.0252C197.333 14.8072 197.657 14.5927 198.009 14.3817C198.36 14.1707 198.684 13.9597 198.979 13.7487C199.275 13.5377 199.521 13.3197 199.718 13.0946C199.922 12.8695 200.024 12.6339 200.024 12.3878C200.024 11.6423 199.542 11.2695 198.578 11.2695C198.367 11.2695 198.156 11.2941 197.945 11.3433C197.741 11.3926 197.558 11.4453 197.397 11.5016C197.235 11.5579 197.101 11.6141 196.996 11.6704C196.89 11.7196 196.838 11.7442 196.838 11.7442L196.331 12.008L195.793 10.9952L196.3 10.7315C196.314 10.7244 196.384 10.6893 196.511 10.626C196.644 10.5556 196.816 10.4853 197.027 10.415C197.238 10.3376 197.478 10.2708 197.745 10.2145C198.019 10.1512 198.297 10.1196 198.578 10.1196C198.979 10.1196 199.338 10.1723 199.654 10.2778C199.978 10.3833 200.252 10.5345 200.477 10.7315C200.702 10.9214 200.875 11.157 200.994 11.4383C201.114 11.7196 201.174 12.0361 201.174 12.3878C201.174 12.7324 201.079 13.0489 200.889 13.3372C200.706 13.6256 200.474 13.8893 200.192 14.1285C199.911 14.3676 199.605 14.5891 199.275 14.7931C198.951 14.9971 198.649 15.1905 198.367 15.3733C198.086 15.5562 197.85 15.732 197.66 15.9008C197.478 16.0696 197.386 16.2384 197.386 16.4072H201.174V17.5571Z" fill="#F7F7F7"/>
<path d="M32.7119 51.2441H26.9656L18.2435 23.0255L9.52138 51.2441H3.77505L14.806 15.3296H21.681L32.7119 51.2441ZM52.111 40.2132H46.5699V15.3296H52.111V40.2132ZM71.0944 45.703V51.2441H46.5699V45.703H71.0944ZM98.7571 15.3296C102.28 15.3296 104.999 16.2873 106.915 18.2027C108.864 20.1182 109.839 22.8374 109.839 26.3605C109.839 29.8835 108.864 32.6199 106.915 34.5695C104.999 36.485 102.28 37.4427 98.7571 37.4427H90.4967V51.2441H84.9556V31.9016H98.7571C100.775 31.9016 102.195 31.4911 103.016 30.6702C103.871 29.8151 104.298 28.3785 104.298 26.3605C104.298 24.3766 103.871 22.9742 103.016 22.1533C102.195 21.2982 100.775 20.8707 98.7571 20.8707H84.9556V15.3296H98.7571ZM123.692 15.3296H129.233V51.2441H123.692V15.3296ZM151.295 15.3296V51.2441H145.805V34.6721H134.723V29.131H145.805V15.3296H151.295ZM194.071 51.2441H188.325L179.603 23.0255L170.88 51.2441H165.134L176.165 15.3296H183.04L194.071 51.2441Z" fill="#F7F7F7"/>
<circle cx="18.4951" cy="43.1587" r="3.53811" fill="url(#paint0_linear_8001_3654)"/>
<rect x="46.4141" y="45.3032" width="24.6736" height="5.94075" fill="url(#paint1_linear_8001_3654)"/>
<rect x="145.82" y="34.7695" width="11.1764" height="5.64285" transform="rotate(-180 145.82 34.7695)" fill="url(#paint2_linear_8001_3654)"/>
<defs>
<linearGradient id="paint0_linear_8001_3654" x1="18.4951" y1="39.6206" x2="18.4951" y2="46.6968" gradientUnits="userSpaceOnUse">
<stop offset="0.200967" stop-color="#FF684D"/>
<stop offset="1" stop-color="#FF5269"/>
</linearGradient>
<linearGradient id="paint1_linear_8001_3654" x1="58.7509" y1="45.3032" x2="58.7509" y2="51.244" gradientUnits="userSpaceOnUse">
<stop offset="0.200967" stop-color="#FF684D"/>
<stop offset="1" stop-color="#FF5269"/>
</linearGradient>
<linearGradient id="paint2_linear_8001_3654" x1="151.409" y1="34.7695" x2="151.409" y2="40.4124" gradientUnits="userSpaceOnUse">
<stop offset="0.200967" stop-color="#FF684D"/>
<stop offset="1" stop-color="#FF5269"/>
</linearGradient>
</defs>
</svg>
