<svg width="39" height="76" viewBox="0 0 39 76" fill="none" xmlns="http://www.w3.org/2000/svg">
<path d="M38.0289 75.4696C33.1263 75.4696 28.2717 74.504 23.7424 72.6278C19.213 70.7517 15.0975 68.0018 11.6308 64.5352C8.16419 61.0685 5.4143 56.953 3.53818 52.4237C1.66204 47.8943 0.696409 43.0397 0.69641 38.1371C0.69641 33.2346 1.66204 28.38 3.53818 23.8506C5.41431 19.3212 8.1642 15.2057 11.6308 11.7391C15.0975 8.27247 19.213 5.52258 23.7424 3.64645C28.2717 1.77032 33.1263 0.804685 38.0289 0.804686L38.0289 38.1371L38.0289 75.4696Z" fill="url(#paint0_linear_8001_3635)"/>
<defs>
<linearGradient id="paint0_linear_8001_3635" x1="75.3613" y1="38.1371" x2="0.69641" y2="38.1371" gradientUnits="userSpaceOnUse">
<stop offset="0.200967" stop-color="#FF684D"/>
<stop offset="1" stop-color="#FF5269"/>
</linearGradient>
</defs>
</svg>
