<svg width="150" height="605" viewBox="0 0 150 605" fill="none" xmlns="http://www.w3.org/2000/svg">
<path d="M20.856 546.876L117.697 517.132L117.697 532.627L41.6077 556.146L117.697 579.664L117.697 595.159L20.856 565.415L20.856 546.876ZM20.856 449.606L87.9532 449.606L87.9532 464.547L20.856 464.547L20.856 449.606ZM102.756 464.547L102.756 398.419L117.697 398.419L117.697 464.547L102.756 464.547ZM20.856 308.61C20.856 289.657 31.7852 278.728 50.6001 278.728C69.5533 278.728 80.4825 289.657 80.4826 308.61L80.4826 330.884L117.697 330.884L117.697 345.825L65.5413 345.825L65.5413 308.61C65.5413 297.819 61.391 293.669 50.6001 293.669C39.9476 293.669 35.7972 297.819 35.7972 308.61L35.7972 345.825L20.856 345.825L20.856 308.61ZM117.697 226.157L20.856 226.157L20.856 211.216L117.697 211.216L117.697 226.157ZM20.856 166.53L20.856 151.728L117.697 151.728L117.697 166.53L73.0119 166.53L73.0119 196.413L58.0707 196.413L58.0707 166.53L20.856 166.53ZM20.856 50.911L117.697 21.167L117.697 36.6615L41.6077 60.1801L117.697 83.6987L117.697 99.1933L20.856 69.4492L20.856 50.911Z" fill="#E1E1E1"/>
</svg>
