<svg width="142" height="182" viewBox="0 0 142 182" fill="none" xmlns="http://www.w3.org/2000/svg">
<path d="M4.35831 36.3566C42.8405 19.7133 87.9107 36.9067 105.444 75.2303C122.978 113.554 106.519 158.898 68.7639 177.13L49.3681 134.736C63.7593 127.207 69.9129 109.571 63.0711 94.6165C56.2293 79.6622 38.8601 72.7842 23.7554 78.7535L4.35831 36.3566ZM67.1544 181.494L68.6454 180.812C109.092 162.307 126.939 114.331 108.426 73.8661C89.913 33.4014 41.9431 15.537 1.49627 34.0419L0.00530314 34.724L22.12 83.061L23.611 82.3788C37.4054 76.0677 53.7699 82.1685 60.0891 95.9808C66.4084 109.793 60.325 126.164 46.5306 132.475L45.0397 133.157L67.1544 181.494Z" fill="#2B2B2B"/>
<path d="M13.2421 55.7749C41.0178 44.0264 73.3958 56.4932 86.0316 84.1117C98.666 111.727 86.9308 144.38 59.8808 157.715L49.3665 134.733C63.759 127.207 69.9126 109.571 63.0708 94.6166C56.229 79.6622 38.8598 72.7842 23.7551 78.7536L13.2421 55.7749ZM58.2727 162.082L59.7637 161.4C89.5084 147.791 102.629 112.507 89.0135 82.7475C75.3968 52.9849 40.122 39.8457 10.3773 53.4542L8.88637 54.1363L22.1197 83.061L23.6107 82.3788C37.4051 76.0678 53.7696 82.1686 60.0888 95.9808C66.4081 109.793 60.3247 126.164 46.5303 132.475L45.0394 133.157L58.2727 162.082Z" fill="#2B2B2B"/>
<path d="M20.6278 71.9189C39.5014 64.2325 61.3341 72.7718 69.8989 91.4923C78.4652 110.216 70.6516 132.319 52.4943 141.571L49.3674 134.736C63.7599 127.21 69.9121 109.571 63.0703 94.6165C56.2286 79.6622 38.8607 72.7871 23.7547 78.7535L20.6278 71.9189ZM50.8916 145.95L52.3826 145.268C73.2322 135.729 82.4266 110.993 72.8809 90.1281C63.3351 69.2636 38.6072 60.0474 17.7576 69.5863L16.2666 70.2685L22.1193 83.0609L23.6103 82.3788C37.4046 76.0677 53.7692 82.1685 60.0884 95.9808C66.4077 109.793 60.3243 126.164 46.5299 132.475L45.0389 133.157L50.8916 145.95Z" fill="#2B2B2B"/>
</svg>
