<svg width="103" height="118" viewBox="0 0 103 118" fill="none" xmlns="http://www.w3.org/2000/svg">
<path d="M71.5799 16.2812C54.0628 8.0082 41.65 6.43576 40.4632 8.94869C39.2755 11.4635 48.3752 20.0511 65.8923 28.3241C83.4093 36.5971 95.8221 38.1695 97.0098 35.6547C98.1966 33.1418 89.0969 24.5542 71.5799 16.2812ZM65.0026 30.2078C50.0154 23.1296 36.1284 13.2488 38.5795 8.05903C41.0305 2.86928 57.4824 7.31927 72.4696 14.3974C87.4567 21.4756 101.345 31.3546 98.8936 36.5444C96.4425 41.7341 79.9898 37.286 65.0026 30.2078Z" fill="#2B2B2B"/>
<path d="M30.3462 103.569C15.359 96.4912 1.47013 86.6095 3.92383 81.4141L5.80758 82.3037C4.61899 84.8204 13.7188 93.4126 31.2358 101.686C48.7548 109.96 61.1694 111.528 62.3579 109.012L64.2417 109.901C61.788 115.097 45.3333 110.648 30.3462 103.569Z" fill="#2B2B2B"/>
<path d="M97.0069 35.6533L98.8906 36.543L64.2408 109.91L62.357 109.02L97.0069 35.6533Z" fill="#2B2B2B"/>
<path d="M82.8897 35.7593L84.7734 36.6489L50.2135 109.825L48.3297 108.936L82.8897 35.7593Z" fill="#2B2B2B"/>
<path d="M70.6006 31.9834L72.4844 32.873L38.1833 105.501L36.2996 104.612L70.6006 31.9834Z" fill="#2B2B2B"/>
<path d="M59.0967 26.5503L60.9805 27.4399L26.6794 100.068L24.7956 99.1785L59.0967 26.5503Z" fill="#2B2B2B"/>
<path d="M48.2862 19.6474L50.1699 20.5371L15.787 93.3386L13.9033 92.4489L48.2862 19.6474Z" fill="#2B2B2B"/>
<path d="M38.5772 8.0576L40.4609 8.94727L5.8111 82.3139L3.92735 81.4243L38.5772 8.0576Z" fill="#2B2B2B"/>
</svg>
