<svg width="92" height="101" viewBox="0 0 92 101" fill="none" xmlns="http://www.w3.org/2000/svg">
<path d="M38.4725 11.6547C19.0632 20.2352 9.9587 42.8764 18.1668 62.5436C26.3788 82.22 48.881 91.6809 68.6309 83.9164L65.1096 75.4791C50.0124 81.3017 32.8734 74.0481 26.6026 59.0229C20.3325 43.9992 27.2302 26.7139 41.9875 20.0768L38.4725 11.6547ZM70.8047 84.8177L70.0392 85.1371C49.2636 93.8079 25.3072 83.9598 16.6358 63.1826C7.96892 42.4161 17.8202 18.4673 38.5959 9.79661L39.3614 9.47713L44.1536 20.9596L43.3881 21.2791C28.9523 27.3039 22.1095 43.9497 28.1336 58.3839C34.1584 72.8197 50.8042 79.6626 65.24 73.6378L66.0055 73.3183L70.8047 84.8177Z" fill="#2B2B2B"/>
<path d="M75.9691 39.6474C80.6208 50.7931 74.8897 63.7966 63.1683 68.6885C51.4485 73.5798 38.1753 68.5077 33.5237 57.362C28.8708 46.2133 34.601 33.2119 46.3208 28.3206C58.0421 23.4287 71.3162 28.4986 75.9691 39.6474Z" fill="#2B2B2B"/>
</svg>
