<svg width="109" height="109" viewBox="0 0 109 109" fill="none" xmlns="http://www.w3.org/2000/svg">
<path d="M54.3032 2.29775C25.7155 2.29775 2.4579 25.5553 2.4579 54.1431C2.4579 82.733 25.7155 105.988 54.3032 105.988C82.891 105.988 106.149 82.733 106.149 54.1431C106.149 25.5553 82.891 2.29775 54.3032 2.29775ZM54.3032 108.185C24.5054 108.185 0.261719 83.9431 0.261719 54.1431C0.261719 24.3452 24.5054 0.101562 54.3032 0.101562C84.1011 0.101562 108.345 24.3452 108.345 54.1431C108.345 83.9431 84.1011 108.185 54.3032 108.185Z" fill="#F7F7F7"/>
<path d="M54.3032 16.5927C33.5976 16.5927 16.7528 33.4374 16.7528 54.143C16.7528 74.8486 33.5976 91.6934 54.3032 91.6934C75.0088 91.6934 91.8535 74.8486 91.8535 54.143C91.8535 33.4374 75.0088 16.5927 54.3032 16.5927ZM54.3032 93.8896C32.3875 93.8896 14.5566 76.0609 14.5566 54.143C14.5566 32.2273 32.3875 14.3965 54.3032 14.3965C76.2189 14.3965 94.0497 32.2273 94.0497 54.143C94.0497 76.0609 76.2189 93.8896 54.3032 93.8896Z" fill="#F7F7F7"/>
</svg>
